<?xml version="1.0" encoding="UTF-8" standalone="no" ?>
<!DOCTYPE svg PUBLIC "-//W3C//DTD SVG 1.1//EN" "http://www.w3.org/Graphics/SVG/1.1/DTD/svg11.dtd">
<svg xmlns="http://www.w3.org/2000/svg" xmlns:xlink="http://www.w3.org/1999/xlink" version="1.1" width="400" height="400" viewBox="0 0 400 400" xml:space="preserve">
<desc>Created with Fabric.js 3.6.2</desc>
<defs>
</defs>
<g transform="matrix(10 0 0 10 200 200)"  >
<path style="stroke: none; stroke-width: 1; stroke-dasharray: none; stroke-linecap: butt; stroke-dashoffset: 0; stroke-linejoin: miter; stroke-miterlimit: 4; fill: rgb(0,0,0); fill-rule: nonzero; opacity: 1;"  transform=" translate(-12, -12)" d="M 10.94 6.08 A 6.93 6.93 0 0 1 12 6 c 3.18 0 6.17 2.29 7.91 6 a 15.23 15.23 0 0 1 -0.9 1.64 a 1 1 0 0 0 -0.16 0.55 a 1 1 0 0 0 1.86 0.5 a 15.77 15.77 0 0 0 1.21 -2.3 a 1 1 0 0 0 0 -0.79 C 19.9 6.91 16.1 4 12 4 a 7.77 7.77 0 0 0 -1.4 0.12 a 1 1 0 1 0 0.34 2 Z M 3.71 2.29 A 1 1 0 0 0 2.29 3.71 L 5.39 6.8 a 14.62 14.62 0 0 0 -3.31 4.8 a 1 1 0 0 0 0 0.8 C 4.1 17.09 7.9 20 12 20 a 9.26 9.26 0 0 0 5.05 -1.54 l 3.24 3.25 a 1 1 0 0 0 1.42 0 a 1 1 0 0 0 0 -1.42 Z m 6.36 9.19 l 2.45 2.45 A 1.81 1.81 0 0 1 12 14 a 2 2 0 0 1 -2 -2 A 1.81 1.81 0 0 1 10.07 11.48 Z M 12 18 c -3.18 0 -6.17 -2.29 -7.9 -6 A 12.09 12.09 0 0 1 6.8 8.21 L 8.57 10 A 4 4 0 0 0 14 15.43 L 15.59 17 A 7.24 7.24 0 0 1 12 18 Z" stroke-linecap="round" />
</g>
</svg>