<?xml version="1.0" encoding="UTF-8" standalone="no" ?>
<!DOCTYPE svg PUBLIC "-//W3C//DTD SVG 1.1//EN" "http://www.w3.org/Graphics/SVG/1.1/DTD/svg11.dtd">
<svg xmlns="http://www.w3.org/2000/svg" xmlns:xlink="http://www.w3.org/1999/xlink" version="1.1" width="400" height="400" viewBox="0 0 400 400" xml:space="preserve">
<desc>Created with Fabric.js 3.6.2</desc>
<defs>
</defs>
<g transform="matrix(3.13 0 0 3.13 186.56 186.25)" id="Fill-1"  >
<path style="stroke: none; stroke-width: 1; stroke-dasharray: none; stroke-linecap: butt; stroke-dashoffset: 0; stroke-linejoin: miter; stroke-miterlimit: 4; fill: rgb(19,69,99); fill-rule: nonzero; opacity: 1;"  transform=" translate(2.3, 202.4)" d="M -2.3 -182.9 c -10.7 0 -19.5 -8.7 -19.5 -19.5 c 0 -10.7 8.7 -19.5 19.5 -19.5 s 19.5 8.7 19.5 19.5 C 17.1 -191.6 8.4 -182.9 -2.3 -182.9 L -2.3 -182.9 z M -2.3 -219 c -9.2 0 -16.7 7.5 -16.7 16.7 c 0 9.2 7.5 16.7 16.7 16.7 s 16.7 -7.5 16.7 -16.7 C 14.3 -211.5 6.8 -219 -2.3 -219 L -2.3 -219 z" stroke-linecap="round" />
</g>
<g transform="matrix(3.13 0 0 3.13 249.84 249.84)" id="Fill-2"  >
<polyline style="stroke: none; stroke-width: 1; stroke-dasharray: none; stroke-linecap: butt; stroke-dashoffset: 0; stroke-linejoin: miter; stroke-miterlimit: 4; fill: rgb(19,69,99); fill-rule: nonzero; opacity: 1;"  points="5.75,7.85 -7.85,-5.65 -5.65,-7.85 7.85,5.75 5.75,7.85 " />
</g>
</svg>